# xmcd CD database file
#
# Track frame offsets:
#	150
#	17455
#	34525
#	59800
#	74053
#	94323
#	112908
#	126538
#	144123
#	166095
#	183973
#	208418
#
# Disc length: 3013 seconds
#
# Revision: 2
# Processed by: cddbd v1.5.1PL2 Copyright (c) Steve Scherf et al.
# Submitted via: CDex 1.51
#
DISCID=ad0bc30c
DTITLE=Yanni - Love Songs
DYEAR=1999
DGENRE=New Age
TTITLE0=Yanni - In The Morning Light
TTITLE1=Yanni - So Long My Friend
TTITLE2=Yanni - To The One Who Knows
TTITLE3=Yanni - Almost A Whisper
TTITLE4=Yanni - Before I Go
TTITLE5=Yanni - In The Mirror
TTITLE6=Yanni - First Touch
TTITLE7=Yanni - Enchantment
TTITLE8=Yanni - Felitsa
TTITLE9=Yanni - Secret Vows
TTITLE10=Yanni - Whispers In The Dark
TTITLE11=Yanni - To Take...To Hold
EXTD=YEAR: 1999
EXTT0=
EXTT1=
EXTT2=
EXTT3=
EXTT4=
EXTT5=
EXTT6=
EXTT7=
EXTT8=
EXTT9=
EXTT10=
EXTT11=
PLAYORDER=
